<?xml version="1.0" encoding="UTF-8"?>
<svg version="1.1" xmlns="http://www.w3.org/2000/svg" width="100" height="100">
<path d="M0 0 C2.06506545 1.45628893 3.94604152 3.00754179 5.83984375 4.6796875 C6.51917969 5.25460938 7.19851562 5.82953125 7.8984375 6.421875 C14.273025 12.23010029 19.25010429 20.09107205 20.83984375 28.6796875 C20.86483988 31.16912387 20.83732139 33.62721441 20.76171875 36.11328125 C20.7344634 37.58135818 20.70846033 39.04945879 20.68359375 40.51757812 C20.64035911 42.8200681 20.58971431 45.1213177 20.51757812 47.4230957 C20.4507683 49.65335071 20.41615709 51.88226001 20.38671875 54.11328125 C20.35777527 54.79676132 20.32883179 55.48024139 20.29901123 56.18443298 C20.27719937 60.10109328 20.6589719 61.4807603 23.33691406 64.42602539 C24.57586426 65.54158813 24.57586426 65.54158813 25.83984375 66.6796875 C26.32244262 70.17852929 26.47497998 72.44911106 24.83984375 75.6171875 C21.5323422 77.3742977 18.41004448 77.52011796 14.83984375 76.6796875 C12.19269321 74.96302032 10.01166881 72.96010382 7.83984375 70.6796875 C3.47450527 72.35866384 -0.61125964 74.40545305 -4.7578125 76.55859375 C-13.37224504 80.57866227 -26.38740375 80.07066268 -35.28515625 77.0546875 C-40.15109358 74.93001868 -44.19074171 72.18450938 -48.16015625 68.6796875 C-48.83949219 68.10476562 -49.51882812 67.52984375 -50.21875 66.9375 C-57.71941812 60.10324285 -62.78185895 50.93709692 -63.3984375 40.73828125 C-63.70866971 27.8454777 -62.21094853 17.51488178 -53.16015625 7.6796875 C-39.26956423 -6.60403448 -17.51031908 -10.70250967 0 0 Z " fill="#98A0E4" transform="translate(70.16015625,14.3203125)"/>
<path d="M0 0 C2.06506545 1.45628893 3.94604152 3.00754179 5.83984375 4.6796875 C6.51917969 5.25460938 7.19851562 5.82953125 7.8984375 6.421875 C14.273025 12.23010029 19.25010429 20.09107205 20.83984375 28.6796875 C20.86483988 31.16912387 20.83732139 33.62721441 20.76171875 36.11328125 C20.7344634 37.58135818 20.70846033 39.04945879 20.68359375 40.51757812 C20.64035911 42.8200681 20.58971431 45.1213177 20.51757812 47.4230957 C20.4507683 49.65335071 20.41615709 51.88226001 20.38671875 54.11328125 C20.35777527 54.79676132 20.32883179 55.48024139 20.29901123 56.18443298 C20.27719937 60.10109328 20.6589719 61.4807603 23.33691406 64.42602539 C24.57586426 65.54158813 24.57586426 65.54158813 25.83984375 66.6796875 C26.32244262 70.17852929 26.47497998 72.44911106 24.83984375 75.6171875 C21.5323422 77.3742977 18.41004448 77.52011796 14.83984375 76.6796875 C12.19269321 74.96302032 10.01166881 72.96010382 7.83984375 70.6796875 C3.47450527 72.35866384 -0.61125964 74.40545305 -4.7578125 76.55859375 C-13.37224504 80.57866227 -26.38740375 80.07066268 -35.28515625 77.0546875 C-40.15109358 74.93001868 -44.19074171 72.18450938 -48.16015625 68.6796875 C-48.83949219 68.10476562 -49.51882812 67.52984375 -50.21875 66.9375 C-57.71941812 60.10324285 -62.78185895 50.93709692 -63.3984375 40.73828125 C-63.70866971 27.8454777 -62.21094853 17.51488178 -53.16015625 7.6796875 C-39.26956423 -6.60403448 -17.51031908 -10.70250967 0 0 Z M-50.5546875 12.65234375 C-57.49944788 21.42200467 -58.92468625 30.7816599 -58.16015625 41.6796875 C-56.27739846 51.16760078 -50.71961275 59.70480938 -43.16015625 65.6796875 C-33.84677112 71.24184807 -25.25766656 73.15301674 -14.43359375 71.18359375 C-5.11051779 68.62912866 1.35787431 63.70857311 7.83984375 56.6796875 C8.07767578 57.58460937 8.07767578 57.58460937 8.3203125 58.5078125 C9.80633223 63.59804583 10.94257894 66.98619185 15.83984375 69.6796875 C16.82984375 69.3496875 17.81984375 69.0196875 18.83984375 68.6796875 C18.02201416 68.01541748 17.20418457 67.35114746 16.36157227 66.66674805 C13.25179575 62.9831276 13.24411955 60.46850156 13.4921875 55.88671875 C13.51702965 54.7676136 13.51702965 54.7676136 13.54237366 53.62590027 C13.59662703 51.24659112 13.6834764 48.87024088 13.77734375 46.4921875 C14.34235927 31.48925484 13.37648624 20.75260998 2.71484375 9.1171875 C-5.21240742 1.41203604 -14.37605165 -0.65340924 -25.09765625 -0.53515625 C-35.10820819 0.16711461 -43.72447738 5.5095382 -50.5546875 12.65234375 Z " fill="#E9E9EA" transform="translate(70.16015625,14.3203125)"/>
<path d="M0 0 C7.50105816 5.62962852 13.16013946 13.01721002 14.91015625 22.43359375 C14.93525496 25.06806215 14.90725218 27.67331771 14.83203125 30.3046875 C14.80477603 31.86391155 14.77877295 33.4231579 14.75390625 34.98242188 C14.71066499 37.42972955 14.66001541 39.87587145 14.58789062 42.32250977 C14.52111785 44.69175105 14.48647703 47.05972609 14.45703125 49.4296875 C14.42808777 50.15691513 14.39914429 50.88414276 14.36932373 51.63340759 C14.34787916 55.72228277 14.76044159 57.25593409 17.43847656 60.43383789 C18.25413086 61.09375732 19.06978516 61.75367676 19.91015625 62.43359375 C18.42515625 62.92859375 18.42515625 62.92859375 16.91015625 63.43359375 C12.01289144 60.7400981 10.87664473 57.35195208 9.390625 52.26171875 C9.15279297 51.35679688 9.15279297 51.35679688 8.91015625 50.43359375 C8.38808594 51.02527344 7.86601563 51.61695313 7.328125 52.2265625 C-0.03422431 60.13045064 -7.98821088 64.73458441 -18.8515625 65.671875 C-30.42625374 65.965492 -39.12489821 62.12236895 -47.65234375 54.30859375 C-55.35749521 46.38134258 -57.42294049 37.21769835 -57.3046875 26.49609375 C-56.60241664 16.48554181 -51.25999305 7.86927262 -44.1171875 1.0390625 C-30.96371861 -9.37726836 -13.67755074 -9.16368708 0 0 Z M-47.33984375 8.68359375 C-52.50342174 15.11690404 -54.84442368 22.28419697 -54.4609375 30.51171875 C-53.08988013 41.30699153 -49.54554529 49.38279914 -41.08984375 56.43359375 C-32.17643367 62.01091537 -24.21428833 63.69636956 -13.828125 61.85546875 C-4.76791232 59.49659681 1.98460271 55.13473826 7.34375 47.3515625 C8.39169518 45.4053786 9.1916679 43.52222267 9.91015625 41.43359375 C10.131875 40.8096875 10.35359375 40.18578125 10.58203125 39.54296875 C13.05856264 31.31017522 12.91589838 22.78421323 9.3671875 14.921875 C4.99159636 7.44935072 -0.80437665 1.27243905 -9.08984375 -1.56640625 C-10.06050781 -1.89898437 -10.06050781 -1.89898437 -11.05078125 -2.23828125 C-25.15745076 -6.36434269 -37.48487264 -1.76267562 -47.33984375 8.68359375 Z " fill="#4B4578" transform="translate(69.08984375,20.56640625)"/>
<path d="M0 0 C4.0743356 0.84881992 5.54405875 2.30225596 8 5.625 C8.625 8.625 8.625 8.625 8 11.625 C5.50915752 14.99496335 4.11411135 16.44310427 -0.0625 17.125 C-3.42877241 16.55201746 -4.79003464 16.2442182 -7 13.625 C-7.96988093 10.89277446 -8.32575603 8.5118724 -8 5.625 C-5.60540961 2.14195943 -4.14822958 0.8642145 0 0 Z " fill="#6167A6" transform="translate(29,41.375)"/>
<path d="M0 0 C2.66589042 0.54323805 3.75768995 0.96351964 5.875 2.75 C7.21538506 5.84964046 7.42167869 7.71409302 6.875 11.0625 C4.41905875 14.38524404 2.9493356 15.83868008 -1.125 16.6875 C-5.1993356 15.83868008 -6.66905875 14.38524404 -9.125 11.0625 C-9.75 8.0625 -9.75 8.0625 -9.125 5.0625 C-6.50620524 1.2161452 -4.62486834 -0.35838463 0 0 Z " fill="#6167A6" transform="translate(49.125,22.9375)"/>
<path d="M0 0 C2.9375 2 2.9375 2 5 5 C5.38022707 7.91696592 5.0649833 10.26062629 4 13 C1.06162832 15.85194898 -0.53597436 16 -4.625 16 C-8 15 -8 15 -10 12.875 C-11.30782688 9.11499772 -11.06090617 6.81926223 -10 3 C-7.0879799 -0.34343049 -4.29142741 -0.70064121 0 0 Z " fill="#6167A6" transform="translate(51,61)"/>
<path d="M0 0 C2.57682379 0.53582347 3.80870067 1.01227323 5.9375 2.625 C7.34023464 6.27211005 7.14015813 9.37636026 5.875 13.0625 C3.75 15.125 3.75 15.125 0.875 16.0625 C-2.90154862 15.99738709 -5.17416906 15.89064308 -8.0625 13.375 C-9.4863395 10.2760552 -9.67653827 8.44067188 -9.125 5.0625 C-6.50620524 1.2161452 -4.62486834 -0.35838463 0 0 Z " fill="#6167A5" transform="translate(68.125,41.9375)"/>
<path d="M0 0 C0.99 0.33 1.98 0.66 3 1 C1.94339216 4.00676674 1.07481132 4.95343377 -1.6796875 6.66796875 C-2.73414063 7.16941406 -3.78859375 7.67085938 -4.875 8.1875 C-5.92429688 8.69667969 -6.97359375 9.20585938 -8.0546875 9.73046875 C-17.29071686 13.71151589 -29.99858817 13.50250657 -39.4375 10.1875 C-42.60857124 8.89227372 -44.71826917 7.56052752 -47 5 C-46.09507813 5.30744141 -46.09507813 5.30744141 -45.171875 5.62109375 C-43.97304688 6.02521484 -43.97304688 6.02521484 -42.75 6.4375 C-41.96109375 6.70433594 -41.1721875 6.97117187 -40.359375 7.24609375 C-30.33825564 10.44820639 -19.07554234 10.29652372 -9.33984375 6.2265625 C-7.06288061 5.03296246 -5.06022696 3.72089138 -3 2.1875 C-2.01 1.465625 -1.02 0.74375 0 0 Z " fill="#050505" transform="translate(74,81)"/>
<path d="M0 0 C4.88885172 4.42658207 6.71088916 10.08673066 7.19238281 16.60400391 C7.53369789 26.7865703 7.17747131 36.88149508 6 47 C5.34 47 4.68 47 4 47 C4.02094727 46.02764404 4.04189453 45.05528809 4.06347656 44.0534668 C4.13668232 40.39509203 4.18208744 36.73677989 4.21972656 33.07788086 C4.23966084 31.50387635 4.26681871 29.92994411 4.30175781 28.35620117 C4.49086998 19.60976359 4.46285672 12.14914813 0.86621094 3.97973633 C0 2 0 2 0 0 Z " fill="#040404" transform="translate(84,29)"/>
<path d="M0 0 C1.32278481 5.41139241 1.32278481 5.41139241 -0.0625 7.9375 C-2.91093248 9.49954362 -4.93504903 8.74921024 -8 8 C-9.32278481 2.58860759 -9.32278481 2.58860759 -7.9375 0.0625 C-5.08906752 -1.49954362 -3.06495097 -0.74921024 0 0 Z " fill="#443E74" transform="translate(52,46)"/>
<path d="M0 0 C0 5.28 0 10.56 0 16 C-5 14 -5 14 -6.375 12.3125 C-7.29838543 8.89597391 -6.86703481 6.40620817 -6 3 C-3.92839358 0.92839358 -2.94846185 0 0 0 Z " fill="#727DC1" transform="translate(28,42)"/>
<path d="M0 0 C1.875 0.55078125 1.875 0.55078125 3.875 2.48828125 C4.875 4.55078125 4.875 4.55078125 4.875 6.55078125 C-0.405 6.55078125 -5.685 6.55078125 -11.125 6.55078125 C-8.4464908 -0.14549175 -6.55774947 -1.00053898 0 0 Z " fill="#727EC2" transform="translate(51.125,23.44921875)"/>
<path d="M0 0 C5.28 0 10.56 0 16 0 C14 5 14 5 12.3125 6.375 C8.85665814 7.30901131 6.43555907 6.93697066 3 6 C0 2.12903226 0 2.12903226 0 0 Z " fill="#717DC1" transform="translate(40,70)"/>
<path d="M0 0 C3.65316671 1.24976756 4.78065836 1.67098753 7 5 C7.21977062 7.79503144 6.88651135 10.34046595 6 13 C3.4375 15 3.4375 15 1 16 C-0.14077657 12.57767028 -0.09815117 9.91326783 -0.0625 6.3125 C-0.05347656 5.13300781 -0.04445313 3.95351563 -0.03515625 2.73828125 C-0.02355469 1.83464844 -0.01195313 0.93101563 0 0 Z " fill="#717DC1" transform="translate(68,42)"/>
<path d="M0 0 C0.66 0.33 1.32 0.66 2 1 C2.35706695 7.30818278 2.35706695 7.30818278 1 9.9375 C-2.22610863 11.65137021 -5.48688796 11.67152041 -9 11 C-11.5 9 -11.5 9 -13 7 C-12.38511719 7.10699219 -11.77023438 7.21398437 -11.13671875 7.32421875 C-10.32847656 7.44410156 -9.52023438 7.56398438 -8.6875 7.6875 C-7.48673828 7.87892578 -7.48673828 7.87892578 -6.26171875 8.07421875 C-3.93733763 8.21433618 -3.93733763 8.21433618 -2.25 6.6875 C-0.65223294 4.53051446 -0.35573958 2.63247289 0 0 Z " fill="#060606" transform="translate(94,80)"/>
</svg>
